<?xml version="1.0" encoding="UTF-8" standalone="no"?>
<svg width="12px" height="13px" viewBox="0 0 12 13" version="1.1" xmlns="http://www.w3.org/2000/svg" xmlns:xlink="http://www.w3.org/1999/xlink">
    <!-- Generator: Sketch 3.8.3 (29802) - http://www.bohemiancoding.com/sketch -->
    <title>Type something</title>
    <desc>Created with Sketch.</desc>
    <defs></defs>
    <g id="Page-1" stroke="none" stroke-width="1" fill="none" fill-rule="evenodd" fill-opacity="0.541326993">
        <path d="M10.814745,0.714273453 C10.4866196,0.714273453 10.1785836,0.861595057 9.94420828,1.07588103 L5.67188176,4.95311779 C5.276792,5.31472537 5.0558096,5.83704742 5.0558096,6.37276234 C5.0558096,7.49776368 5.97991784,8.46205055 7.11161562,8.46205055 C7.68081273,8.46205055 8.16295616,8.2343717 8.57143879,7.85267482 C9.40849336,7.08258462 11.1629597,3.80802714 11.6852818,2.81695453 C11.8459963,2.50222201 11.9866214,2.16070375 11.9866214,1.80579261 C11.9866214,1.16963114 11.4241208,0.714273453 10.814745,0.714273453 L10.814745,0.714273453 Z M4.72768421,7.63838885 C3.22098598,7.70535322 2.33035992,7.97321068 1.76116281,9.45981959 C1.70089488,9.61383763 1.56026972,9.70758775 1.3928588,9.70758775 C1.11160847,9.70758775 0.247768153,9.01785478 0,8.85044387 C0,10.9062499 0.984376173,12.7142878 3.25446817,12.7142878 C5.16964902,12.7142878 6.49554346,11.4017862 6.45536484,9.49330178 L6.4486684,9.01785478 C5.71206038,8.82365812 5.07589891,8.31472894 4.72768421,7.63838885 L4.72768421,7.63838885 Z" id="Type-something" fill="#ffffff"></path>
    </g>
</svg>