<?xml version="1.0" encoding="UTF-8" standalone="no"?>
<svg width="13px" height="13px" viewBox="0 0 13 13" version="1.1" xmlns="http://www.w3.org/2000/svg" xmlns:xlink="http://www.w3.org/1999/xlink">
    <!-- Generator: Sketch 39.1 (31720) - http://www.bohemiancoding.com/sketch -->
    <title>fa-exclamation-triangle</title>
    <desc>Created with Sketch.</desc>
    <defs></defs>
    <g id="Footer" stroke="none" stroke-width="1" fill="none" fill-rule="evenodd" fill-opacity="0.87">
        <path d="M7.42858028,10.8320299 C7.42858028,10.9626104 7.32701766,11.0714275 7.19643715,11.0714275 L5.80357835,11.0714275 C5.67299783,11.0714275 5.57143521,10.9626104 5.57143521,10.8320299 L5.57143521,9.45368 C5.57143521,9.32309949 5.67299783,9.21428239 5.80357835,9.21428239 L7.19643715,9.21428239 C7.32701766,9.21428239 7.42858028,9.32309949 7.42858028,9.45368 L7.42858028,10.8320299 Z M7.41407134,8.11885698 C7.40681687,8.21316513 7.29799977,8.28570986 7.16741926,8.28570986 L5.82534177,8.28570986 C5.68750678,8.28570986 5.57868969,8.21316513 5.57868969,8.11885698 L5.45536365,4.80356285 C5.45536365,4.76003601 5.47712706,4.68749128 5.52790838,4.65121892 C5.57143521,4.61494655 5.63672547,4.57141972 5.70201573,4.57141972 L7.29799977,4.57141972 C7.36329003,4.57141972 7.42858028,4.61494655 7.47210712,4.65121892 C7.52288843,4.68749128 7.54465185,4.74552707 7.54465185,4.7890539 L7.41407134,8.11885698 Z M7.31250872,1.34317926 C7.15291031,1.04574587 6.84096798,0.857129574 6.50000775,0.857129574 C6.15904752,0.857129574 5.84710518,1.04574587 5.68750678,1.34317926 L0.116071567,11.5574772 C-0.0435268376,11.8404016 -0.0362723647,12.1886163 0.130580513,12.4715407 C0.29743339,12.7544652 0.602121253,12.9285725 0.928572536,12.9285725 L12.071443,12.9285725 C12.3978942,12.9285725 12.7025821,12.7544652 12.869435,12.4715407 C13.0362879,12.1886163 13.0435423,11.8404016 12.8839439,11.5574772 L7.31250872,1.34317926 Z" id="fa-exclamation-triangle" fill="#000000"></path>
    </g>
</svg>