<svg width="31" height="35" viewBox="0 0 31 35" xmlns="http://www.w3.org/2000/svg"><title>8EE15893-B62E-48B4-8020-0B9A0C0EDD7B</title><g fill="#000" fill-rule="evenodd" fill-opacity=".259"><path d="M26.158 26.313c.013.012.026.025.026.039-.053.014-.12.014-.241.014-.401 0-1.005-.135-1.661-.375 1.46 0 1.809.254 1.876.322m-8.655.213c.2-.361.402-.736.603-1.111.482-.952.858-1.823 1.112-2.639.456.976 1.044 1.781 1.702 2.357.12.108.254.201.387.309-1.312.24-2.625.615-3.804 1.084m1.66-8.856c0-.013.015-.027.015-.052.08.093.16.24.173.482.014.025.014.053.028.067a.385.385 0 0 0-.054.107c-.026.16-.067.348-.094.576-.026.174-.053.375-.094.59-.107-.75-.107-1.395.027-1.77m-5.332 12.327c.2-.455.83-1.34 1.836-2.118-.858 1.354-1.434 1.93-1.836 2.118m7.717-5.506c-.79-.645-1.487-1.783-1.956-3.19.16-.924.174-1.728.187-2.572v-.402c0-.039 0-.067-.013-.108.027-.025.04-.066.054-.105.08-.43.04-.725-.121-.912-.107-.133-.268-.202-.47-.202h-.294c-.267 0-.468.202-.562.538-.241.882-.108 2.384.32 3.843a20.454 20.454 0 0 1-1.392 3.51 34.898 34.898 0 0 1-1.433 2.641.109.109 0 0 0-.027-.055c-.067-.107-.202-.146-.308-.08-1.662.871-2.385 1.902-2.52 2.52-.04.267.014.414.08.482.028.025.042.053.082.066l.32.16a.724.724 0 0 0 .376.094c.805 0 1.862-1.152 3.242-3.51 1.434-.496 3.39-.91 5.252-1.111 1.126.59 2.425.977 3.282.977.71 0 .91-.268.95-.508v-.014c.015-.013.029-.041.04-.053.149-.322.069-.564-.025-.697-.335-.549-1.474-.656-2.371-.656-.482 0-1.005.025-1.567.094a9.29 9.29 0 0 1-1.126-.75"/><path d="M28.864 32.292H11.716V11.714h10.289v5.574c0 .709.576 1.285 1.286 1.285h5.573v13.719zm-27.149-10V1.714h10.289v5.574c0 .71.577 1.286 1.287 1.286h5.573v1.425h-7.577c-.71 0-1.286.576-1.286 1.287v3.578l-2.284 2.284-1.715-1.715-2.572 2.572v2.573h6.571v1.714H1.715zM13.719 1.821c.228.081.456.201.55.295l4.193 4.194c.094.093.214.321.295.549h-5.038V1.821zm10 10c.228.08.456.201.549.295l4.194 4.194c.093.093.215.322.295.548h-5.038v-5.037zm5.949 3.27l-4.18-4.18c-.496-.496-1.487-.912-2.197-.912h-2.712V7.288c0-.71-.416-1.702-.911-2.198L15.488.911C14.992.415 14.001 0 13.291 0H1.287C.577 0 0 .576 0 1.286v21.435c0 .71.577 1.286 1.287 1.286h8.714v8.715c0 .709.576 1.285 1.286 1.285h18.006c.71 0 1.286-.576 1.286-1.285V17.288c0-.711-.416-1.701-.911-2.197z"/><path d="M5.572 14.145A2.573 2.573 0 1 0 5.571 9a2.573 2.573 0 0 0 .001 5.145"/></g></svg>