<?xml version="1.0" encoding="UTF-8" standalone="no"?>
<svg width="12px" height="9px" viewBox="0 0 12 9" version="1.1" xmlns="http://www.w3.org/2000/svg" xmlns:xlink="http://www.w3.org/1999/xlink">
    <!-- Generator: Sketch 39.1 (31720) - http://www.bohemiancoding.com/sketch -->
    <title>fa-check</title>
    <desc>Created with Sketch.</desc>
    <defs></defs>
    <g id="Page-1" stroke="none" stroke-width="1" fill="none" fill-rule="evenodd">
        <path d="M11.1897455,2.50445654 C11.1897455,2.33704563 11.1227811,2.16963471 11.0022453,2.04909886 L10.0915299,1.13838349 C9.97099403,1.01784763 9.80358312,0.950883262 9.6361722,0.950883262 C9.46876129,0.950883262 9.30135037,1.01784763 9.18081452,1.13838349 L4.78795214,5.5379423 L2.81919979,3.56249352 C2.69866393,3.44195766 2.53125302,3.37499329 2.3638421,3.37499329 C2.19643119,3.37499329 2.02902028,3.44195766 1.90848442,3.56249352 L0.997769047,4.47320889 C0.877233189,4.59374475 0.810268823,4.76115566 0.810268823,4.92856658 C0.810268823,5.09597749 0.877233189,5.2633884 0.997769047,5.38392426 L3.42187908,7.80803429 L4.33259445,8.71874966 C4.45313031,8.83928552 4.62054122,8.90624989 4.78795214,8.90624989 C4.95536305,8.90624989 5.12277396,8.83928552 5.24330982,8.71874966 L6.15402519,7.80803429 L11.0022453,2.95981423 C11.1227811,2.83927837 11.1897455,2.67186746 11.1897455,2.50445654 L11.1897455,2.50445654 Z" id="fa-check" fill="#ffffff"></path>
    </g>
</svg>