<?xml version="1.0" encoding="UTF-8"?>
<svg width="16px" height="15px" viewBox="0 0 16 15" version="1.1" xmlns="http://www.w3.org/2000/svg" xmlns:xlink="http://www.w3.org/1999/xlink">
    <!-- Generator: Sketch 40.2 (33826) - http://www.bohemiancoding.com/sketch -->
    <title></title>
    <desc>Created with Sketch.</desc>
    <defs></defs>
    <g id="Disable-Doc-Designer" stroke="none" stroke-width="1" fill="none" fill-rule="evenodd">
        <path d="M14.8571606,4.99999046 L14.8571606,1.57141495 C14.8571606,0.946414202 14.3393028,0.428556442 13.7143021,0.428556442 C12.0000143,1.85712957 9.14286804,3.85713196 5.71429253,3.85713196 L1.42857313,3.85713196 C0.642857909,3.85713196 0,4.49998987 0,5.28570509 L0,6.99999285 C0,7.78570807 0.642857909,8.42856598 1.42857313,8.42856598 L2.51786014,8.42856598 C1.8928594,10.4374969 2.66071746,12.0267846 3.17857522,13.6160722 C4.00000477,14.3750016 6.30357894,14.3571445 6.85715103,13.2678575 C5.91072133,12.5267852 5.10714895,11.80357 5.73214969,10.7767831 C5.03572029,10.0624965 5.40179215,8.82142359 6.46429342,8.46428031 C9.5625114,8.72320919 12.1250145,10.5357113 13.7143021,11.8571415 C14.3393028,11.8571415 14.8571606,11.3392837 14.8571606,10.714283 L14.8571606,7.28570747 C15.4910899,7.28570747 16.0000191,6.7767783 16.0000191,6.14284897 C16.0000191,5.50891964 15.4910899,4.99999046 14.8571606,4.99999046 L14.8571606,4.99999046 Z M13.7143021,10.392854 C11.3839421,8.60713762 9.12501088,7.59820785 6.85715103,7.34820755 L6.85715103,4.93749039 C9.12501088,4.68749009 11.3839421,3.66070315 13.7143021,1.87498674 L13.7143021,10.392854 Z" id="" fill="#000000"></path>
    </g>
</svg>