<?xml version="1.0" encoding="UTF-8" standalone="no"?>
<svg width="31px" height="35px" viewBox="0 0 31 35" version="1.1" xmlns="http://www.w3.org/2000/svg" xmlns:xlink="http://www.w3.org/1999/xlink">
    <!-- Generator: Sketch 40.1 (33804) - http://www.bohemiancoding.com/sketch -->
    <title>PDF placeholder</title>
    <desc>Created with Sketch.</desc>
    <defs></defs>
    <g id="#Document-Designer" stroke="none" stroke-width="1" fill="none" fill-rule="evenodd" fill-opacity="0.259001359">
        <g id="layout---background" transform="translate(-465.000000, -147.000000)" fill="#000000">
            <g id="Group-28" transform="translate(432.000000, 30.000000)">
                <g id="Doc.-Bg" transform="translate(0.000000, 34.000000)">
                    <g id="Group-4" transform="translate(0.000000, 32.000000)">
                        <g id="PDF-placeholder" transform="translate(33.000000, 51.000000)">
                            <path d="M26.1576786,26.313 C26.1706786,26.325 26.1836786,26.338 26.1836786,26.352 C26.1306786,26.366 26.0636786,26.366 25.9426786,26.366 C25.5416786,26.366 24.9376786,26.231 24.2816786,25.991 C25.7416786,25.991 26.0906786,26.245 26.1576786,26.313 M17.5026786,26.526 C17.7036786,26.165 17.9046786,25.79 18.1056786,25.415 C18.5876786,24.463 18.9636786,23.592 19.2176786,22.776 C19.6736786,23.752 20.2616786,24.557 20.9196786,25.133 C21.0396786,25.241 21.1736786,25.334 21.3066786,25.442 C19.9946786,25.682 18.6816786,26.057 17.5026786,26.526 M19.1636786,17.67 C19.1636786,17.657 19.1776786,17.643 19.1776786,17.618 C19.2576786,17.711 19.3386786,17.858 19.3506786,18.1 C19.3646786,18.125 19.3646786,18.153 19.3786786,18.167 C19.3506786,18.208 19.3386786,18.233 19.3246786,18.274 C19.2986786,18.434 19.2576786,18.622 19.2306786,18.85 C19.2046786,19.024 19.1776786,19.225 19.1366786,19.44 C19.0296786,18.69 19.0296786,18.045 19.1636786,17.67 M13.8316786,29.997 C14.0326786,29.542 14.6626786,28.657 15.6676786,27.879 C14.8096786,29.233 14.2336786,29.809 13.8316786,29.997 M21.5486786,24.491 C20.7586786,23.846 20.0616786,22.708 19.5926786,21.301 C19.7536786,20.377 19.7666786,19.573 19.7796786,18.729 L19.7796786,18.327 C19.7796786,18.288 19.7796786,18.26 19.7666786,18.219 C19.7936786,18.194 19.8066786,18.153 19.8206786,18.114 C19.9006786,17.684 19.8606786,17.389 19.6996786,17.202 C19.5926786,17.069 19.4316786,17 19.2306786,17 L19.2176786,17 L18.9356786,17 C18.6686786,17 18.4676786,17.202 18.3736786,17.538 C18.1326786,18.42 18.2656786,19.922 18.6946786,21.381 C18.3736786,22.506 17.9046786,23.686 17.3016786,24.891 C16.7656786,25.977 16.2836786,26.848 15.8686786,27.532 C15.8686786,27.518 15.8546786,27.491 15.8416786,27.477 C15.7746786,27.37 15.6396786,27.331 15.5336786,27.397 C13.8716786,28.268 13.1486786,29.299 13.0136786,29.917 C12.9736786,30.184 13.0276786,30.331 13.0946786,30.399 C13.1216786,30.424 13.1356786,30.452 13.1756786,30.465 L13.4966786,30.625 C13.6176786,30.694 13.7376786,30.719 13.8716786,30.719 C14.6766786,30.719 15.7336786,29.567 17.1136786,27.209 C18.5476786,26.713 20.5036786,26.299 22.3656786,26.098 C23.4916786,26.688 24.7906786,27.075 25.6476786,27.075 C26.3576786,27.075 26.5586786,26.807 26.5986786,26.567 L26.5986786,26.553 C26.6126786,26.54 26.6266786,26.512 26.6386786,26.5 C26.7866786,26.178 26.7066786,25.936 26.6126786,25.803 C26.2776786,25.254 25.1386786,25.147 24.2416786,25.147 C23.7596786,25.147 23.2366786,25.172 22.6746786,25.241 C22.2586786,24.999 21.8836786,24.758 21.5486786,24.491" id="Fill-1"></path>
                            <path d="M28.864,32.292 L11.716,32.292 L11.716,11.714 L22.005,11.714 L22.005,17.288 C22.005,17.997 22.581,18.573 23.291,18.573 L28.864,18.573 L28.864,32.292 Z M1.715,22.292 L1.715,1.714 L12.004,1.714 L12.004,7.288 C12.004,7.998 12.581,8.574 13.291,8.574 L18.864,8.574 L18.864,9.999 L11.287,9.999 C10.577,9.999 10.001,10.575 10.001,11.286 L10.001,14.864 L7.717,17.148 L6.002,15.433 L3.43,18.005 L3.43,20.578 L10.001,20.578 L10.001,22.292 L1.715,22.292 Z M13.719,1.821 C13.947,1.902 14.175,2.022 14.269,2.116 L18.462,6.31 C18.556,6.403 18.676,6.631 18.757,6.859 L13.719,6.859 L13.719,1.821 Z M23.719,11.821 C23.947,11.901 24.175,12.022 24.268,12.116 L28.462,16.31 C28.555,16.403 28.677,16.632 28.757,16.858 L23.719,16.858 L23.719,11.821 Z M29.668,15.091 L25.488,10.911 C24.992,10.415 24.001,9.999 23.291,9.999 L20.579,9.999 L20.579,7.288 C20.579,6.578 20.163,5.586 19.668,5.09 L15.488,0.911 C14.992,0.415 14.001,0 13.291,0 L1.287,0 C0.577,0 0,0.576 0,1.286 L0,22.721 C0,23.431 0.577,24.007 1.287,24.007 L10.001,24.007 L10.001,32.722 C10.001,33.431 10.577,34.007 11.287,34.007 L29.293,34.007 C30.003,34.007 30.579,33.431 30.579,32.722 L30.579,17.288 C30.579,16.577 30.163,15.587 29.668,15.091 L29.668,15.091 Z" id="Fill-3"></path>
                        </g>
                    </g>
                </g>
            </g>
        </g>
    </g>
</svg>