<?xml version="1.0" encoding="utf-8"?>
<!-- Generator: Avocode 2.6.0 - http://avocode.com -->
<svg height="76" width="75" xmlns:xlink="http://www.w3.org/1999/xlink" xmlns="http://www.w3.org/2000/svg" viewBox="0 0 75 76">
    <defs>
        <filter height="200%" width="200%" y="-50%" x="-50%" id="filter-1">
            <feMorphology result="shadowSpread1" in="SourceAlpha" operator="dilate" radius="2" />
            <feOffset result="shadowOffset1" in="shadowSpread1" dy="3" dx="0" />
            <feGaussianBlur result="shadowBlur1" in="shadowOffset1" stdDeviation="14" />
            <feColorMatrix result="shadowMatrix1" in="shadowBlur1" type="matrix" values="0 0 0 0 0   0 0 0 0 0   0 0 0 0 0   0 0 0 0.12 0" />
            <feMorphology result="shadowSpread2" in="SourceAlpha" operator="dilate" radius="1" />
            <feOffset result="shadowOffset2" in="shadowSpread2" dy="8" dx="0" />
            <feGaussianBlur result="shadowBlur2" in="shadowOffset2" stdDeviation="10" />
            <feColorMatrix result="shadowMatrix2" in="shadowBlur2" type="matrix" values="0 0 0 0 0   0 0 0 0 0   0 0 0 0 0   0 0 0 0.14 0" />
            <feMerge>
                <feMergeNode in="shadowMatrix2" />
                <feMergeNode in="shadowMatrix1" />
                <feMergeNode in="SourceGraphic" />
            </feMerge>
        </filter>
    </defs>
    <path filter="url(#filter-1)" stroke-linejoin="miter" stroke-linecap="butt" stroke-width="1" stroke="#ffffff" fill="#fcfcfc" fill-rule="evenodd" d="M 44.12 26.27 C 44.12 26.65 43.99 27 43.73 27.26 L 31.84 39.15 C 31.57 39.41 31.2 39.57 30.83 39.57 C 30.48 39.57 30.11 39.41 29.84 39.15 L 21.91 31.22 C 21.65 30.96 21.52 30.61 21.52 30.24 C 21.52 29.87 21.65 29.49 21.91 29.23 L 23.91 27.26 C 24.17 27 24.52 26.84 24.89 26.84 C 25.26 26.84 25.62 27 25.88 27.26 L 30.83 32.21 L 39.76 23.29 C 40.03 23.03 40.38 22.88 40.75 22.88 C 41.12 22.88 41.47 23.03 41.74 23.29 L 43.73 25.27 C 43.99 25.53 44.12 25.9 44.12 26.27 L 44.12 26.27 Z M 49.64 29.82 C 49.64 20.53 42.11 13 32.82 13 C 23.53 13 16 20.53 16 29.82 C 16 39.11 23.53 46.64 32.82 46.64 C 42.11 46.64 49.64 39.11 49.64 29.82 L 49.64 29.82 Z M 49.64 29.82" />
</svg>