<?xml version="1.0" encoding="utf-8"?>
<!-- Generator: Adobe Illustrator 20.0.0, SVG Export Plug-In . SVG Version: 6.00 Build 0)  -->
<svg version="1.1" id="Layer_1" xmlns="http://www.w3.org/2000/svg" xmlns:xlink="http://www.w3.org/1999/xlink" x="0px" y="0px"
	 viewBox="0 0 98 98" style="enable-background:new 0 0 98 98;" xml:space="preserve">
<style type="text/css">
	.st0{fill-opacity:0.259;}
</style>
<title>logo upload</title>
<desc>Created with Sketch.</desc>
<g id="Page-1">
	<g id="logo-upload-process" transform="translate(-62.000000, -144.000000)">
		<g id="Logo-for-documents" transform="translate(63.000000, 112.000000)">
			<g id="Group-3">
				<g id="logo-placeholder" transform="translate(0.000000, 33.000000)">
					<g id="logo-upload">
						<path id="_xF1C5_" class="st0" d="M61.4,29.7L55.6,24c-0.7-0.7-2-1.3-3-1.3H36.1c-1,0-1.8,0.8-1.8,1.8v29.5
							c0,1,0.8,1.8,1.8,1.8h24.8c1,0,1.8-0.8,1.8-1.8V32.7C62.6,31.8,62.1,30.4,61.4,29.7L61.4,29.7z M53.2,25.2
							c0.3,0.1,0.6,0.3,0.8,0.4l5.8,5.8c0.1,0.1,0.3,0.4,0.4,0.8h-6.9V25.2z M60.3,53.4H36.7V25.1h14.1v7.7c0,1,0.8,1.8,1.8,1.8h7.7
							V53.4z M57.9,45.1L52,39.2L45,46.3l-2.4-2.4l-3.5,3.5V51h18.9V45.1z M42.6,41.6c2,0,3.5-1.6,3.5-3.5s-1.6-3.5-3.5-3.5
							s-3.5,1.6-3.5,3.5S40.7,41.6,42.6,41.6L42.6,41.6z"/>
						<path id="LOGO" class="st0" d="M32.4,69.1h3.8V71H30V60.8h2.4V69.1z M47.4,65.9c0,0.7-0.1,1.4-0.4,2.1
							c-0.3,0.6-0.6,1.2-1.1,1.7c-0.5,0.5-1,0.8-1.7,1.1c-0.7,0.3-1.4,0.4-2.2,0.4s-1.5-0.1-2.2-0.4c-0.7-0.3-1.2-0.6-1.7-1.1
							c-0.5-0.5-0.8-1-1.1-1.7c-0.3-0.6-0.4-1.3-0.4-2.1c0-0.7,0.1-1.4,0.4-2.1c0.3-0.6,0.6-1.2,1.1-1.7c0.5-0.5,1-0.8,1.7-1.1
							c0.7-0.3,1.4-0.4,2.2-0.4s1.5,0.1,2.2,0.4c0.7,0.3,1.2,0.6,1.7,1.1c0.5,0.5,0.8,1,1.1,1.7C47.2,64.5,47.4,65.2,47.4,65.9
							L47.4,65.9z M44.9,65.9c0-0.5-0.1-1-0.2-1.4s-0.3-0.7-0.6-1c-0.2-0.3-0.5-0.5-0.9-0.6c-0.4-0.1-0.8-0.2-1.2-0.2
							c-0.5,0-0.9,0.1-1.2,0.2s-0.7,0.4-0.9,0.6c-0.2,0.3-0.4,0.6-0.6,1s-0.2,0.9-0.2,1.4c0,0.5,0.1,1,0.2,1.4
							c0.1,0.4,0.3,0.7,0.6,1c0.2,0.3,0.5,0.5,0.9,0.6c0.4,0.1,0.8,0.2,1.2,0.2c0.5,0,0.9-0.1,1.2-0.2c0.4-0.1,0.7-0.4,0.9-0.6
							s0.4-0.6,0.6-1C44.9,66.9,44.9,66.4,44.9,65.9L44.9,65.9z M53.3,69.3c0.3,0,0.6,0,0.9-0.1s0.5-0.1,0.7-0.2v-1.5h-1
							c-0.1,0-0.3,0-0.4-0.1c-0.1-0.1-0.1-0.2-0.1-0.3v-1.3H57V70c-0.3,0.2-0.5,0.4-0.8,0.5c-0.3,0.1-0.6,0.3-0.9,0.3
							c-0.3,0.1-0.7,0.2-1,0.2c-0.4,0-0.8,0.1-1.2,0.1c-0.7,0-1.4-0.1-2.1-0.4c-0.6-0.3-1.2-0.6-1.6-1.1c-0.5-0.5-0.8-1-1.1-1.7
							c-0.3-0.6-0.4-1.3-0.4-2.1c0-0.8,0.1-1.5,0.4-2.1c0.3-0.6,0.6-1.2,1.1-1.6s1-0.8,1.7-1.1c0.7-0.3,1.4-0.4,2.2-0.4
							c0.4,0,0.8,0,1.2,0.1c0.4,0.1,0.7,0.2,1,0.3s0.6,0.3,0.9,0.4c0.3,0.2,0.5,0.3,0.7,0.5l-0.7,1c-0.1,0.1-0.1,0.2-0.2,0.2
							c-0.1,0.1-0.2,0.1-0.3,0.1c-0.1,0-0.3,0-0.4-0.1c-0.2-0.1-0.4-0.2-0.5-0.3c-0.2-0.1-0.3-0.1-0.5-0.2c-0.2-0.1-0.4-0.1-0.5-0.1
							c-0.2,0-0.4,0-0.6,0c-0.4,0-0.8,0.1-1.2,0.2c-0.4,0.2-0.7,0.4-0.9,0.7c-0.2,0.3-0.4,0.6-0.6,1s-0.2,0.8-0.2,1.3
							c0,0.5,0.1,1,0.2,1.4c0.1,0.4,0.4,0.8,0.6,1.1s0.6,0.5,0.9,0.7S52.9,69.3,53.3,69.3L53.3,69.3z M68.5,65.9
							c0,0.7-0.1,1.4-0.4,2.1c-0.3,0.6-0.6,1.2-1.1,1.7c-0.5,0.5-1,0.8-1.7,1.1c-0.7,0.3-1.4,0.4-2.2,0.4c-0.8,0-1.5-0.1-2.2-0.4
							c-0.7-0.3-1.2-0.6-1.7-1.1c-0.5-0.5-0.8-1-1.1-1.7c-0.3-0.6-0.4-1.3-0.4-2.1c0-0.7,0.1-1.4,0.4-2.1c0.3-0.6,0.6-1.2,1.1-1.7
							c0.5-0.5,1-0.8,1.7-1.1c0.7-0.3,1.4-0.4,2.2-0.4c0.8,0,1.5,0.1,2.2,0.4c0.7,0.3,1.2,0.6,1.7,1.1c0.5,0.5,0.8,1,1.1,1.7
							C68.4,64.5,68.5,65.2,68.5,65.9L68.5,65.9z M66.1,65.9c0-0.5-0.1-1-0.2-1.4s-0.3-0.7-0.6-1c-0.2-0.3-0.5-0.5-0.9-0.6
							s-0.8-0.2-1.2-0.2c-0.5,0-0.9,0.1-1.2,0.2s-0.7,0.4-0.9,0.6c-0.2,0.3-0.4,0.6-0.6,1c-0.1,0.4-0.2,0.9-0.2,1.4
							c0,0.5,0.1,1,0.2,1.4c0.1,0.4,0.3,0.7,0.6,1c0.2,0.3,0.5,0.5,0.9,0.6c0.4,0.1,0.8,0.2,1.2,0.2c0.5,0,0.9-0.1,1.2-0.2
							c0.4-0.1,0.7-0.4,0.9-0.6s0.4-0.6,0.6-1C66,66.9,66.1,66.4,66.1,65.9L66.1,65.9z"/>
					</g>
				</g>
			</g>
		</g>
	</g>
</g>
</svg>
